# xmcd CD database file
#
# Track frame offsets:
#	150
#	19690
#	37167
#	56652
#
# Disc length: 986 seconds
#
# Revision: 1
# Processed by: cddbd v1.5.1PL0 Copyright (c) Steve Scherf et al.
# Submitted via: CDex 1.51
#
DISCID=2f03d804
DTITLE=DEEN - 素顔で笑っていたい
DYEAR=1996
DGENRE=JPop
TTITLE0=素顔で笑っていたい
TTITLE1=Dancin' alone
TTITLE2=素顔で笑っていたい(Original Karaoke)
TTITLE3=Dancin' alone(Original Karaoke)
EXTD=YEAR: 1996
EXTT0=
EXTT1=
EXTT2=
EXTT3=
PLAYORDER=
